# xmcd
#
# Track frame offsets:
#	150
#	20685
#	30395
#	50220
#	66488
#	82757
#	107095
#	124090
#	152535
#	165211
#	189740
#
# Disc length: 2698 seconds
#
# Revision: 1
# Processed by: cddbd v1.5.1PL2 Copyright (c) Steve Scherf et al.
# Submitted via: EasyCDDAExtractor 9.1.0.1
#
DISCID=870a880b
DTITLE=Jim Van Cleve - No Apologies
DYEAR=2006
DGENRE=Bluegrass
TTITLE0=Nature Of The Beast
TTITLE1=Let The Big Dog Eat
TTITLE2=Fall Creek Falls
TTITLE3=Way It Always Seems To Go
TTITLE4=Devil's Courthouse
TTITLE5=Highlands
TTITLE6=We Can't Be Darlings Anymore
TTITLE7=Grey Afternoon
TTITLE8=Wheel Hoss
TTITLE9=Scars
TTITLE10=Train 45
EXTD=
EXTT0=
EXTT1=
EXTT2=
EXTT3=
EXTT4=
EXTT5=
EXTT6=
EXTT7=
EXTT8=
EXTT9=
EXTT10=
PLAYORDER=
